<?xml version="1.0" encoding="UTF-8"?><svg id="a" xmlns="http://www.w3.org/2000/svg" viewBox="0 0 303.38 492.99"><path d="M179.69,199.68c-24.01.63-17.51,1.2-40.28-.72-26.43-2.21-41.3-13.48-45.47-34.45-3.11-15.64-5.05-49.18-3.87-66.47h0c1.81-26.25,20.49-40.7,50.83-39.43,46.27,1.81,56.74,4.94,79.21,7.43,22.98,2.53,28.29,21.35,28.18,40.25-.11,16.89-2.55,39.91-6.54,61.59-3.05,16.62-12.25,26.94-28.05,31.4l-34.02.39Z" stroke-width="0"/><path d="M159.28,161.92c.38-2.4,1.16-4.41,2.37-6.03,1.2-1.62,2.64-2.8,4.32-3.56,1.68-.75,3.42-1.12,5.23-1.12,1.81,0,3.5.43,5.08,1.28,1.58.85,2.87,2.1,3.88,3.73,1,1.64,1.52,3.66,1.55,6.07.09,3.62-1,6.37-3.26,8.26-2.27,1.89-4.75,2.84-7.46,2.86-2.71.02-5.27-.91-7.67-2.79-2.4-1.88-3.75-4.78-4.03-8.71ZM163.31,78.92c.98-2.38,2.29-4.22,3.93-5.53,1.65-1.3,3.35-1.98,5.11-2.03,1.76-.05,3.45.53,5.07,1.73,1.62,1.2,2.89,3.08,3.82,5.61.04,5.22.07,10.14.08,14.76,0,4.62-.03,9.09-.11,13.4-.08,4.31-.24,8.58-.46,12.79-.23,4.21-.51,8.52-.84,12.92-.2,3.11-1.29,5.41-3.3,6.9-2,1.5-4.13,2.16-6.38,1.99-2.25-.17-4.29-1.08-6.09-2.74-1.81-1.66-2.67-4-2.57-7.01l1.57-51.9.18-.9Z" fill="#fff" stroke-width="0"/><path d="M208.48,188.08l-9.37,40.43c-.53,3.07-2.66,5.58-5.54,6.53-.82.28-1.65.4-2.47.4-2.09,0-4.15-.85-5.7-2.39l-35.14-38.77" stroke-width="0"/><path d="M258.33,360.28c-.78.81-1.79,1.4-2.97,1.67-7.87,1.82-19.01-.99-28.38-7.13-8.24-5.4-13.52-12.39-14.86-19.68-.61-3.28,1.56-6.43,4.84-7.03,3.28-.61,6.43,1.56,7.03,4.84.73,3.96,4.24,8.25,9.62,11.78,7.3,4.79,15.11,6.37,19.04,5.46,3.25-.75,6.49,1.28,7.24,4.52.48,2.08-.18,4.15-1.56,5.57Z" stroke-width="0"/><path d="M268.32,366.99c-5.33,5.49-14.14,5.62-19.64.29-5.5-5.34-5.63-14.15-.29-19.64,5.34-5.5,14.15-5.63,19.64-.29,5.5,5.34,5.63,14.15.29,19.64ZM257.04,356.05c-.7.72-.68,1.87.04,2.57.72.7,1.87.68,2.57-.04.7-.72.68-1.87-.04-2.57-.72-.7-1.87-.68-2.57.04Z" stroke-width="0"/><path d="M257.76,393.21c-1.35,1.39-3.35,2.11-5.4,1.74-3.28-.59-5.46-3.73-4.87-7.01l9.41-52.29c.59-3.28,3.73-5.46,7.01-4.87,3.28.59,5.46,3.73,4.87,7.01l-9.41,52.29c-.22,1.23-.8,2.3-1.61,3.13Z" stroke-width="0"/><path d="M279.33,333.62c-5,5.15-10.93,7.68-16.95,6.64-6.78-1.18-12.09-6.62-14.95-15.32-2.44-7.4-2.88-16.63-1.26-25.97,3.71-21.27,16.27-35.62,29.22-33.37,6.78,1.18,12.09,6.62,14.95,15.32,2.44,7.4,2.88,16.63,1.26,25.97-1.99,11.39-6.51,20.8-12.27,26.73ZM267.17,280.61c-3.67,3.78-7.43,10.81-9.1,20.43-1.28,7.31-.97,14.65.83,20.12,1.36,4.14,3.44,6.83,5.55,7.2h0c4.41.76,12.54-8.03,15.25-23.55,1.28-7.31.97-14.65-.83-20.12-1.36-4.14-3.44-6.83-5.55-7.2-1.68-.29-3.9.8-6.15,3.12Z" stroke-width="0"/><path d="M87.85,272.81c-28.2,17.14-72.21,65.3-40.77,124.84,31.41,59.48,94.94,52.49,137.17,24.25,34.97-23.38,67.84-70.16,37.35-123.14-30.91-53.7-97.79-47.8-133.75-25.95Z" fill="#fff" stroke-width="0"/><path d="M208.05,406.72c-6.73,6.94-14.17,13.03-21.82,18.14-28.18,18.85-61.28,25.98-88.53,19.09-22.81-5.77-41.4-21.2-53.78-44.63-32.88-62.27,13.14-111.97,42.07-129.56,24.78-15.06,58.41-20.27,85.69-13.27,22.8,5.85,41.12,19.85,53,40.49,24.92,43.3,9.49,82.83-16.64,109.75ZM67.75,293.59c-21.95,22.61-40.26,59.31-17.51,102.39,11.57,21.9,28.13,35.72,49.22,41.05,25.32,6.41,56.28-.36,82.81-18.1,34.77-23.25,65.12-68.21,36.24-118.39-11.05-19.21-27.4-31.7-48.59-37.14-25.51-6.54-56.99-1.65-80.21,12.46h0c-6.78,4.12-14.57,10.13-21.95,17.73Z" stroke-width="0"/><path d="M84.21,381.34c14.78,34.42,51.98,45.9,96.23,18.17,49.34-30.92,46.65-71.39,33.17-94.14-13.48-22.75-42.24-39.77-89.34-10.71-37.15,22.92-53.82,54.66-40.07,86.68Z" stroke-width="0"/><path d="M67.42,378.73c6.3,10.3,8.63,20.36,2.16,24.32-6.47,3.96-19.3.33-25.6-9.97-6.3-10.3-3.7-23.37,2.77-27.33,6.47-3.96,14.37,2.68,20.67,12.98Z" stroke-width="0"/><path d="M44.98,432.28c-2.64,1.43-6,.7-7.79-1.82-4.67-6.58-6.33-17.95-4.22-28.95,1.86-9.68,6.31-17.22,12.53-21.25,2.79-1.84,6.54-1.01,8.35,1.79,1.81,2.8,1.01,6.54-1.79,8.35-3.38,2.19-6.02,7.06-7.23,13.38-1.65,8.57-.14,16.39,2.2,19.69,1.93,2.72,1.29,6.49-1.42,8.42-.2.14-.41.27-.63.39Z" stroke-width="0"/><path d="M60.06,441.25c-.32.17-.65.32-1,.43-3.17,1.04-6.58-.69-7.61-3.86-1.07-3.28-4.61-5.07-7.89-4-3.28,1.05-5.07,4.61-4,7.88,1.04,3.17-.69,6.57-3.86,7.61-3.17,1.04-6.58-.69-7.61-3.86-3.14-9.61,2.13-19.98,11.72-23.11,9.61-3.13,19.97,2.12,23.11,11.72.92,2.82-.34,5.82-2.86,7.18Z" stroke-width="0"/><path d="M139.63,349.63c4.02,5.29,5.64,11.58,6.22,18,.16,2.16.16,4.22-.2,6.62-.75,5.79-8.9,7.2-11.59,2.12-3.52-7.08-5.72-15.08-5.77-23.05.08-5.84,7.92-8.29,11.35-3.68h0Z" fill="#fff" stroke-width="0"/><path d="M188.44,317.2c4.02,5.29,5.64,11.58,6.22,18,.16,2.16.16,4.22-.2,6.62-.75,5.79-8.9,7.2-11.59,2.12-3.52-7.08-5.72-15.08-5.77-23.05.08-5.84,7.92-8.29,11.35-3.68h0Z" fill="#fff" stroke-width="0"/><path d="M49.78,255.86c.42,5.47,36.71,12.18,43.08,11.05l-3.88-31.87s-39.68,14.52-39.2,20.82Z" fill="#ef3e2f" stroke-width="0"/><path d="M106.13,282.7c-.74.76-1.68,1.33-2.78,1.63-3.22.85-6.53-1.06-7.38-4.28l-10.93-41.2c-.86-3.22,1.07-6.53,4.28-7.38,3.22-.85,6.53,1.06,7.38,4.28l10.93,41.2c.57,2.13-.08,4.29-1.51,5.76Z" stroke-width="0"/></svg>